<svg width="115" height="98" viewBox="0 0 115 98" fill="none" xmlns="http://www.w3.org/2000/svg">
<g filter="url(#filter0_d_22_468)">
<mask id="mask0_22_468" style="mask-type:alpha" maskUnits="userSpaceOnUse" x="15" y="2" width="85" height="85">
<rect x="15.1533" y="2.94238" width="84" height="84" fill="#D9D9D9"/>
</mask>
<g mask="url(#mask0_22_468)">
<path d="M30.2305 65C28.4624 65 26.9659 64.3875 25.7409 63.1625C24.5159 61.9375 23.9034 60.441 23.9034 58.6729V22.3271C23.9034 20.559 24.5159 19.0625 25.7409 17.8375C26.9659 16.6125 28.4624 16 30.2305 16H84.0763C85.8443 16 87.3409 16.6125 88.5659 17.8375C89.7909 19.0625 90.4034 20.559 90.4034 22.3271V58.6729C90.4034 60.441 89.7909 61.9375 88.5659 63.1625C87.3409 64.3875 85.8443 65 84.0763 65H30.2305ZM20 73.75V68.5H94.3067V73.75H20Z" fill="url(#paint0_linear_22_468)"/>
</g>
</g>
<defs>
<filter id="filter0_d_22_468" x="-4.84668" y="-17.0576" width="124" height="128" filterUnits="userSpaceOnUse" color-interpolation-filters="sRGB">
<feFlood flood-opacity="0" result="BackgroundImageFix"/>
<feColorMatrix in="SourceAlpha" type="matrix" values="0 0 0 0 0 0 0 0 0 0 0 0 0 0 0 0 0 0 127 0" result="hardAlpha"/>
<feOffset dy="4"/>
<feGaussianBlur stdDeviation="10"/>
<feComposite in2="hardAlpha" operator="out"/>
<feColorMatrix type="matrix" values="0 0 0 0 1 0 0 0 0 1 0 0 0 0 1 0 0 0 0.05 0"/>
<feBlend mode="normal" in2="BackgroundImageFix" result="effect1_dropShadow_22_468"/>
<feBlend mode="normal" in="SourceGraphic" in2="effect1_dropShadow_22_468" result="shape"/>
</filter>
<linearGradient id="paint0_linear_22_468" x1="94.619" y1="16.2457" x2="47.4045" y2="91.0081" gradientUnits="userSpaceOnUse">
<stop stop-color="white" stop-opacity="0.8"/>
<stop offset="1" stop-color="#FFC0BF" stop-opacity="0.5"/>
</linearGradient>
</defs>
</svg>
