<svg width="24" height="24" viewBox="0 0 24 24" fill="none" xmlns="http://www.w3.org/2000/svg">
<mask id="mask0_28_600" style="mask-type:alpha" maskUnits="userSpaceOnUse" x="0" y="0" width="24" height="24">
<rect width="24" height="24" fill="#D9D9D9"/>
</mask>
<g mask="url(#mask0_28_600)">
<path d="M20.257 17.9421L17.5935 15.2579L18.8364 14.0053L21.5 16.6895L20.257 17.9421ZM17.0607 7.20526L15.8178 5.95263L18.4813 3.26842L19.7243 4.52105L17.0607 7.20526ZM6.93925 7.20526L4.2757 4.52105L5.51869 3.26842L8.18224 5.95263L6.93925 7.20526ZM3.74299 17.9421L2.5 16.6895L5.16355 14.0053L6.40654 15.2579L3.74299 17.9421ZM6.51752 20L7.96028 13.7145L3.1215 9.48684L9.51402 8.92763L12 3L14.486 8.92763L20.8785 9.48684L16.0397 13.7145L17.4825 20L12 16.6671L6.51752 20Z" fill="#060405"/>
</g>
</svg>
