<svg width="24" height="24" viewBox="0 0 24 24" fill="none" xmlns="http://www.w3.org/2000/svg">
<mask id="mask0_28_605" style="mask-type:alpha" maskUnits="userSpaceOnUse" x="0" y="0" width="24" height="24">
<rect width="24" height="24" fill="#D9D9D9"/>
</mask>
<g mask="url(#mask0_28_605)">
<path d="M14.25 23.75V22.25H21.75V23.75H14.25ZM18 20.6443L14.3558 17L15.4 15.9557L17.25 17.8057V13.275H18.75V17.8057L20.6 15.9557L21.6443 17L18 20.6443ZM6.05775 19.75C5.56542 19.75 5.14108 19.5718 4.78475 19.2153C4.42825 18.8589 4.25 18.4346 4.25 17.9423V4.05775C4.25 3.56542 4.42825 3.14108 4.78475 2.78475C5.14108 2.42825 5.56542 2.25 6.05775 2.25H13L18.75 8V11.0828H12.0578V19.75H6.05775ZM12.25 8.75H17.25L12.25 3.75V8.75Z" fill="#1C1B1F"/>
</g>
</svg>
