<svg width="195" height="17" viewBox="0 0 195 17" fill="none" xmlns="http://www.w3.org/2000/svg">
<path d="M20 3.30697C20 4.51075 19.7629 5.70275 19.3022 6.8149C18.8416 7.92705 18.1663 8.93757 17.3151 9.78878C16.4639 10.64 15.4534 11.3152 14.3413 11.7759C13.2291 12.2365 12.0371 12.4736 10.8333 12.4736C9.62955 12.4736 8.43755 12.2365 7.3254 11.7759C6.21325 11.3152 5.20272 10.64 4.35152 9.78878C3.50032 8.93757 2.82511 7.92705 2.36444 6.8149C1.90377 5.70275 1.66667 4.51075 1.66667 3.30697" stroke="white" stroke-width="3.33333" stroke-linecap="round"/>
<path d="M35.332 13.1401V0.360136H40.75C41.338 0.360136 41.878 0.480136 42.37 0.720136C42.862 0.960136 43.288 1.28414 43.648 1.69214C44.02 2.10014 44.308 2.55614 44.512 3.06014C44.716 3.56414 44.818 4.08014 44.818 4.60814C44.818 5.32814 44.65 6.01214 44.314 6.66014C43.978 7.30814 43.516 7.83614 42.928 8.24414C42.34 8.65214 41.644 8.85614 40.84 8.85614H37.816V13.1401H35.332ZM37.816 6.67814H40.696C40.996 6.67814 41.266 6.59414 41.506 6.42614C41.746 6.25814 41.938 6.01814 42.082 5.70614C42.226 5.38214 42.298 5.01614 42.298 4.60814C42.298 4.16414 42.214 3.78614 42.046 3.47414C41.89 3.16214 41.68 2.92814 41.416 2.77214C41.164 2.61614 40.888 2.53814 40.588 2.53814H37.816V6.67814ZM55.0788 13.1401H52.6668V7.84814C52.6668 7.11614 52.5228 6.57014 52.2348 6.21014C51.9588 5.85014 51.5748 5.67014 51.0828 5.67014C50.7948 5.67014 50.4888 5.75414 50.1648 5.92214C49.8408 6.09014 49.5468 6.32414 49.2828 6.62414C49.0308 6.91214 48.8448 7.24814 48.7248 7.63214V13.1401H46.3128V0.000136375H48.7248V5.45414C49.0728 4.85414 49.5468 4.38614 50.1468 4.05014C50.7468 3.71414 51.4008 3.54614 52.1088 3.54614C52.7208 3.54614 53.2188 3.65414 53.6028 3.87014C53.9868 4.07414 54.2868 4.35614 54.5028 4.71614C54.7188 5.06414 54.8688 5.46014 54.9528 5.90414C55.0368 6.33614 55.0788 6.78614 55.0788 7.25414V13.1401ZM61.5321 13.3201C60.7641 13.3201 60.0741 13.1941 59.4621 12.9421C58.8501 12.6781 58.3281 12.3181 57.8961 11.8621C57.4761 11.4061 57.1521 10.8841 56.9241 10.2961C56.6961 9.70814 56.5821 9.09014 56.5821 8.44214C56.5821 7.78214 56.6961 7.15814 56.9241 6.57014C57.1521 5.98214 57.4761 5.46014 57.8961 5.00414C58.3281 4.54814 58.8501 4.19414 59.4621 3.94214C60.0741 3.67814 60.7641 3.54614 61.5321 3.54614C62.3001 3.54614 62.9841 3.67814 63.5841 3.94214C64.1961 4.19414 64.7181 4.54814 65.1501 5.00414C65.5821 5.46014 65.9061 5.98214 66.1221 6.57014C66.3501 7.15814 66.4641 7.78214 66.4641 8.44214C66.4641 9.09014 66.3501 9.70814 66.1221 10.2961C65.9061 10.8841 65.5821 11.4061 65.1501 11.8621C64.7301 12.3181 64.2141 12.6781 63.6021 12.9421C62.9901 13.1941 62.3001 13.3201 61.5321 13.3201ZM59.0661 8.44214C59.0661 8.99414 59.1741 9.48614 59.3901 9.91814C59.6061 10.3381 59.9001 10.6681 60.2721 10.9081C60.6441 11.1481 61.0641 11.2681 61.5321 11.2681C61.9881 11.2681 62.4021 11.1481 62.7741 10.9081C63.1461 10.6561 63.4401 10.3201 63.6561 9.90014C63.8841 9.46814 63.9981 8.97614 63.9981 8.42414C63.9981 7.88414 63.8841 7.39814 63.6561 6.96614C63.4401 6.53414 63.1461 6.19814 62.7741 5.95814C62.4021 5.71814 61.9881 5.59814 61.5321 5.59814C61.0641 5.59814 60.6441 5.72414 60.2721 5.97614C59.9001 6.21614 59.6061 6.55214 59.3901 6.98414C59.1741 7.40414 59.0661 7.89014 59.0661 8.44214ZM73.6035 12.6541C73.3995 12.7381 73.1535 12.8341 72.8655 12.9421C72.5775 13.0501 72.2655 13.1341 71.9295 13.1941C71.6055 13.2661 71.2755 13.3021 70.9395 13.3021C70.4955 13.3021 70.0875 13.2241 69.7155 13.0681C69.3435 12.9121 69.0435 12.6661 68.8155 12.3301C68.5995 11.9821 68.4915 11.5321 68.4915 10.9801V5.56214H67.2495V3.70814H68.4915V0.648137H70.9035V3.70814H72.8835V5.56214H70.9035V10.1701C70.9155 10.4941 71.0055 10.7281 71.1735 10.8721C71.3415 11.0161 71.5515 11.0881 71.8035 11.0881C72.0555 11.0881 72.3015 11.0461 72.5415 10.9621C72.7815 10.8781 72.9735 10.8061 73.1175 10.7461L73.6035 12.6541ZM79.1103 13.3201C78.3423 13.3201 77.6523 13.1941 77.0403 12.9421C76.4283 12.6781 75.9063 12.3181 75.4743 11.8621C75.0543 11.4061 74.7303 10.8841 74.5023 10.2961C74.2743 9.70814 74.1603 9.09014 74.1603 8.44214C74.1603 7.78214 74.2743 7.15814 74.5023 6.57014C74.7303 5.98214 75.0543 5.46014 75.4743 5.00414C75.9063 4.54814 76.4283 4.19414 77.0403 3.94214C77.6523 3.67814 78.3423 3.54614 79.1103 3.54614C79.8783 3.54614 80.5623 3.67814 81.1623 3.94214C81.7743 4.19414 82.2963 4.54814 82.7283 5.00414C83.1603 5.46014 83.4843 5.98214 83.7003 6.57014C83.9283 7.15814 84.0423 7.78214 84.0423 8.44214C84.0423 9.09014 83.9283 9.70814 83.7003 10.2961C83.4843 10.8841 83.1603 11.4061 82.7283 11.8621C82.3083 12.3181 81.7923 12.6781 81.1803 12.9421C80.5683 13.1941 79.8783 13.3201 79.1103 13.3201ZM76.6443 8.44214C76.6443 8.99414 76.7523 9.48614 76.9683 9.91814C77.1843 10.3381 77.4783 10.6681 77.8503 10.9081C78.2223 11.1481 78.6423 11.2681 79.1103 11.2681C79.5663 11.2681 79.9803 11.1481 80.3523 10.9081C80.7243 10.6561 81.0183 10.3201 81.2343 9.90014C81.4623 9.46814 81.5763 8.97614 81.5763 8.42414C81.5763 7.88414 81.4623 7.39814 81.2343 6.96614C81.0183 6.53414 80.7243 6.19814 80.3523 5.95814C79.9803 5.71814 79.5663 5.59814 79.1103 5.59814C78.6423 5.59814 78.2223 5.72414 77.8503 5.97614C77.4783 6.21614 77.1843 6.55214 76.9683 6.98414C76.7523 7.40414 76.6443 7.89014 76.6443 8.44214ZM89.1443 13.3201C88.3403 13.3201 87.5723 13.1881 86.8403 12.9241C86.1083 12.6601 85.4783 12.2701 84.9503 11.7541L85.8143 10.1881C86.3783 10.6441 86.9303 10.9801 87.4703 11.1961C88.0223 11.4121 88.5503 11.5201 89.0543 11.5201C89.5223 11.5201 89.8943 11.4361 90.1703 11.2681C90.4583 11.1001 90.6023 10.8481 90.6023 10.5121C90.6023 10.2841 90.5243 10.1101 90.3683 9.99014C90.2123 9.85814 89.9843 9.74414 89.6843 9.64814C89.3963 9.55214 89.0423 9.44414 88.6223 9.32414C87.9263 9.09614 87.3443 8.87414 86.8763 8.65814C86.4083 8.44214 86.0543 8.17214 85.8143 7.84814C85.5863 7.51214 85.4723 7.08614 85.4723 6.57014C85.4723 5.94614 85.6283 5.41214 85.9403 4.96814C86.2643 4.51214 86.7083 4.15814 87.2723 3.90614C87.8483 3.65414 88.5203 3.52814 89.2883 3.52814C89.9603 3.52814 90.5963 3.63614 91.1963 3.85214C91.7963 4.05614 92.3423 4.39214 92.8343 4.86014L91.8623 6.39014C91.3823 6.01814 90.9263 5.74814 90.4943 5.58014C90.0623 5.40014 89.6243 5.31014 89.1803 5.31014C88.9283 5.31014 88.6883 5.34014 88.4603 5.40014C88.2443 5.46014 88.0643 5.56214 87.9203 5.70614C87.7883 5.83814 87.7223 6.03014 87.7223 6.28214C87.7223 6.51014 87.7823 6.69014 87.9023 6.82214C88.0343 6.94214 88.2263 7.05014 88.4783 7.14614C88.7423 7.24214 89.0603 7.35014 89.4323 7.47014C90.1883 7.68614 90.8243 7.90814 91.3403 8.13614C91.8683 8.36414 92.2643 8.64614 92.5283 8.98214C92.7923 9.30614 92.9243 9.75614 92.9243 10.3321C92.9243 11.2681 92.5823 12.0001 91.8983 12.5281C91.2143 13.0561 90.2963 13.3201 89.1443 13.3201ZM103.331 13.1401H100.919V7.84814C100.919 7.11614 100.775 6.57014 100.487 6.21014C100.211 5.85014 99.8268 5.67014 99.3348 5.67014C99.0468 5.67014 98.7408 5.75414 98.4168 5.92214C98.0928 6.09014 97.7988 6.32414 97.5348 6.62414C97.2828 6.91214 97.0968 7.24814 96.9768 7.63214V13.1401H94.5648V0.000136375H96.9768V5.45414C97.3248 4.85414 97.7988 4.38614 98.3988 4.05014C98.9988 3.71414 99.6528 3.54614 100.361 3.54614C100.973 3.54614 101.471 3.65414 101.855 3.87014C102.239 4.07414 102.539 4.35614 102.755 4.71614C102.971 5.06414 103.121 5.46014 103.205 5.90414C103.289 6.33614 103.331 6.78614 103.331 7.25414V13.1401ZM109.784 13.3201C109.016 13.3201 108.326 13.1941 107.714 12.9421C107.102 12.6781 106.58 12.3181 106.148 11.8621C105.728 11.4061 105.404 10.8841 105.176 10.2961C104.948 9.70814 104.834 9.09014 104.834 8.44214C104.834 7.78214 104.948 7.15814 105.176 6.57014C105.404 5.98214 105.728 5.46014 106.148 5.00414C106.58 4.54814 107.102 4.19414 107.714 3.94214C108.326 3.67814 109.016 3.54614 109.784 3.54614C110.552 3.54614 111.236 3.67814 111.836 3.94214C112.448 4.19414 112.97 4.54814 113.402 5.00414C113.834 5.46014 114.158 5.98214 114.374 6.57014C114.602 7.15814 114.716 7.78214 114.716 8.44214C114.716 9.09014 114.602 9.70814 114.374 10.2961C114.158 10.8841 113.834 11.4061 113.402 11.8621C112.982 12.3181 112.466 12.6781 111.854 12.9421C111.242 13.1941 110.552 13.3201 109.784 13.3201ZM107.318 8.44214C107.318 8.99414 107.426 9.48614 107.642 9.91814C107.858 10.3381 108.152 10.6681 108.524 10.9081C108.896 11.1481 109.316 11.2681 109.784 11.2681C110.24 11.2681 110.654 11.1481 111.026 10.9081C111.398 10.6561 111.692 10.3201 111.908 9.90014C112.136 9.46814 112.25 8.97614 112.25 8.42414C112.25 7.88414 112.136 7.39814 111.908 6.96614C111.692 6.53414 111.398 6.19814 111.026 5.95814C110.654 5.71814 110.24 5.59814 109.784 5.59814C109.316 5.59814 108.896 5.72414 108.524 5.97614C108.152 6.21614 107.858 6.55214 107.642 6.98414C107.426 7.40414 107.318 7.89014 107.318 8.44214ZM121.996 13.3201C121.264 13.3201 120.616 13.1581 120.052 12.8341C119.5 12.4981 119.068 12.0481 118.756 11.4841V16.9741H116.344V3.70814H118.45V5.32814C118.81 4.77614 119.266 4.34414 119.818 4.03214C120.37 3.70814 121 3.54614 121.708 3.54614C122.344 3.54614 122.926 3.67214 123.454 3.92414C123.994 4.17614 124.462 4.53014 124.858 4.98614C125.254 5.43014 125.56 5.94614 125.776 6.53414C126.004 7.11014 126.118 7.73414 126.118 8.40614C126.118 9.31814 125.938 10.1461 125.578 10.8901C125.23 11.6341 124.744 12.2281 124.12 12.6721C123.508 13.1041 122.8 13.3201 121.996 13.3201ZM121.186 11.2681C121.558 11.2681 121.894 11.1901 122.194 11.0341C122.494 10.8781 122.752 10.6681 122.968 10.4041C123.196 10.1281 123.364 9.82214 123.472 9.48614C123.592 9.13814 123.652 8.77814 123.652 8.40614C123.652 8.01014 123.586 7.64414 123.454 7.30814C123.334 6.97214 123.154 6.67814 122.914 6.42614C122.674 6.16214 122.392 5.95814 122.068 5.81414C121.756 5.67014 121.414 5.59814 121.042 5.59814C120.814 5.59814 120.58 5.64014 120.34 5.72414C120.112 5.79614 119.89 5.90414 119.674 6.04814C119.458 6.19214 119.266 6.36014 119.098 6.55214C118.942 6.74414 118.828 6.95414 118.756 7.18214V9.39614C118.9 9.74414 119.092 10.0621 119.332 10.3501C119.584 10.6381 119.872 10.8661 120.196 11.0341C120.52 11.1901 120.85 11.2681 121.186 11.2681Z" fill="white"/>
<path d="M136.361 13.3201C135.653 13.3201 135.011 13.1941 134.435 12.9421C133.859 12.6781 133.361 12.3241 132.941 11.8801C132.521 11.4241 132.197 10.9021 131.969 10.3141C131.741 9.72614 131.627 9.10814 131.627 8.46014C131.627 7.80014 131.741 7.17614 131.969 6.58814C132.197 6.00014 132.521 5.48414 132.941 5.04014C133.361 4.58414 133.859 4.23014 134.435 3.97814C135.023 3.71414 135.665 3.58214 136.361 3.58214C137.069 3.58214 137.711 3.71414 138.287 3.97814C138.863 4.23014 139.361 4.58414 139.781 5.04014C140.213 5.48414 140.543 6.00014 140.771 6.58814C140.999 7.17614 141.113 7.80014 141.113 8.46014C141.113 9.10814 140.999 9.72614 140.771 10.3141C140.543 10.9021 140.219 11.4241 139.799 11.8801C139.379 12.3241 138.875 12.6781 138.287 12.9421C137.711 13.1941 137.069 13.3201 136.361 13.3201ZM133.247 8.47814C133.247 9.12614 133.385 9.71414 133.661 10.2421C133.949 10.7701 134.327 11.1901 134.795 11.5021C135.263 11.8021 135.785 11.9521 136.361 11.9521C136.937 11.9521 137.459 11.7961 137.927 11.4841C138.407 11.1721 138.785 10.7521 139.061 10.2241C139.349 9.68414 139.493 9.09014 139.493 8.44214C139.493 7.79414 139.349 7.20614 139.061 6.67814C138.785 6.15014 138.407 5.73014 137.927 5.41814C137.459 5.10614 136.937 4.95014 136.361 4.95014C135.785 4.95014 135.263 5.11214 134.795 5.43614C134.327 5.74814 133.949 6.16814 133.661 6.69614C133.385 7.22414 133.247 7.81814 133.247 8.47814ZM143.014 13.1401V3.74414H144.598V7.63214H149.494V3.74414H151.078V13.1401H149.494V9.03614H144.598V13.1401H143.014ZM152.804 13.2121V11.7901C153.116 11.7901 153.392 11.7121 153.632 11.5561C153.884 11.3881 154.106 11.1121 154.298 10.7281C154.49 10.3321 154.64 9.79214 154.748 9.10814C154.868 8.41214 154.946 7.53014 154.982 6.46214L155.09 3.74414H161.48V13.1401H159.896V5.14814H156.494L156.458 6.60614C156.41 7.89014 156.302 8.95814 156.134 9.81014C155.966 10.6621 155.732 11.3341 155.432 11.8261C155.132 12.3181 154.76 12.6721 154.316 12.8881C153.884 13.1041 153.38 13.2121 152.804 13.2121ZM163.3 10.4221C163.3 9.82214 163.468 9.30614 163.804 8.87414C164.152 8.43014 164.626 8.08814 165.226 7.84814C165.826 7.60814 166.522 7.48814 167.314 7.48814C167.734 7.48814 168.178 7.52414 168.646 7.59614C169.114 7.65614 169.528 7.75214 169.888 7.88414V7.20014C169.888 6.48014 169.672 5.91614 169.24 5.50814C168.808 5.08814 168.196 4.87814 167.404 4.87814C166.888 4.87814 166.39 4.97414 165.91 5.16614C165.442 5.34614 164.944 5.61014 164.416 5.95814L163.84 4.84214C164.452 4.42214 165.064 4.11014 165.676 3.90614C166.288 3.69014 166.924 3.58214 167.584 3.58214C168.784 3.58214 169.732 3.91814 170.428 4.59014C171.124 5.25014 171.472 6.17414 171.472 7.36214V11.3401C171.472 11.5321 171.508 11.6761 171.58 11.7721C171.664 11.8561 171.796 11.9041 171.976 11.9161V13.1401C171.82 13.1641 171.682 13.1821 171.562 13.1941C171.454 13.2061 171.364 13.2121 171.292 13.2121C170.92 13.2121 170.638 13.1101 170.446 12.9061C170.266 12.7021 170.164 12.4861 170.14 12.2581L170.104 11.6641C169.696 12.1921 169.162 12.6001 168.502 12.8881C167.842 13.1761 167.188 13.3201 166.54 13.3201C165.916 13.3201 165.358 13.1941 164.866 12.9421C164.374 12.6781 163.99 12.3301 163.714 11.8981C163.438 11.4541 163.3 10.9621 163.3 10.4221ZM169.42 11.0881C169.564 10.9201 169.678 10.7521 169.762 10.5841C169.846 10.4041 169.888 10.2541 169.888 10.1341V8.96414C169.516 8.82014 169.126 8.71214 168.718 8.64014C168.31 8.55614 167.908 8.51414 167.512 8.51414C166.708 8.51414 166.054 8.67614 165.55 9.00014C165.058 9.31214 164.812 9.74414 164.812 10.2961C164.812 10.5961 164.89 10.8901 165.046 11.1781C165.214 11.4541 165.454 11.6821 165.766 11.8621C166.09 12.0421 166.486 12.1321 166.954 12.1321C167.446 12.1321 167.914 12.0361 168.358 11.8441C168.802 11.6401 169.156 11.3881 169.42 11.0881ZM173.987 13.1401V3.76214H175.571V11.0161L180.827 3.74414H182.267V13.1401H180.683V6.03014L175.499 13.1401H173.987ZM178.145 2.68214C177.281 2.68214 176.627 2.47814 176.183 2.07014C175.739 1.65014 175.517 1.13414 175.517 0.522136H176.633C176.633 0.858136 176.747 1.14014 176.975 1.36814C177.215 1.58414 177.605 1.69214 178.145 1.69214C178.673 1.69214 179.045 1.59014 179.261 1.38614C179.477 1.17014 179.609 0.882136 179.657 0.522136H180.773C180.773 1.13414 180.551 1.65014 180.107 2.07014C179.663 2.47814 179.009 2.68214 178.145 2.68214ZM184.78 13.1401V3.74414H186.364V7.63214H191.26V3.74414H192.844V13.1401H191.26V9.03614H186.364V13.1401H184.78Z" fill="white" fill-opacity="0.3"/>
</svg>
