<svg width="195" height="17" viewBox="0 0 195 17" fill="none" xmlns="http://www.w3.org/2000/svg">
<path d="M20 3.30671C20 4.51049 19.7629 5.70249 19.3022 6.81464C18.8416 7.92679 18.1663 8.93731 17.3151 9.78852C16.4639 10.6397 15.4534 11.3149 14.3413 11.7756C13.2291 12.2363 12.0371 12.4734 10.8333 12.4734C9.62955 12.4734 8.43755 12.2363 7.3254 11.7756C6.21325 11.3149 5.20272 10.6397 4.35152 9.78852C3.50032 8.93731 2.82511 7.92679 2.36444 6.81464C1.90377 5.70249 1.66667 4.51049 1.66667 3.30671" stroke="#060405" stroke-width="3.33333" stroke-linecap="round"/>
<path d="M35.332 13.14V0.359999H40.75C41.338 0.359999 41.878 0.479999 42.37 0.719998C42.862 0.959999 43.288 1.284 43.648 1.692C44.02 2.1 44.308 2.556 44.512 3.06C44.716 3.564 44.818 4.08 44.818 4.608C44.818 5.328 44.65 6.012 44.314 6.66C43.978 7.308 43.516 7.836 42.928 8.244C42.34 8.652 41.644 8.856 40.84 8.856H37.816V13.14H35.332ZM37.816 6.678H40.696C40.996 6.678 41.266 6.594 41.506 6.426C41.746 6.258 41.938 6.018 42.082 5.706C42.226 5.382 42.298 5.016 42.298 4.608C42.298 4.164 42.214 3.786 42.046 3.474C41.89 3.162 41.68 2.928 41.416 2.772C41.164 2.616 40.888 2.538 40.588 2.538H37.816V6.678ZM55.0788 13.14H52.6668V7.848C52.6668 7.116 52.5228 6.57 52.2348 6.21C51.9588 5.85 51.5748 5.67 51.0828 5.67C50.7948 5.67 50.4888 5.754 50.1648 5.922C49.8408 6.09 49.5468 6.324 49.2828 6.624C49.0308 6.912 48.8448 7.248 48.7248 7.632V13.14H46.3128V-9.53674e-07H48.7248V5.454C49.0728 4.854 49.5468 4.386 50.1468 4.05C50.7468 3.714 51.4008 3.546 52.1088 3.546C52.7208 3.546 53.2188 3.654 53.6028 3.87C53.9868 4.074 54.2868 4.356 54.5028 4.716C54.7188 5.064 54.8688 5.46 54.9528 5.904C55.0368 6.336 55.0788 6.786 55.0788 7.254V13.14ZM61.5321 13.32C60.7641 13.32 60.0741 13.194 59.4621 12.942C58.8501 12.678 58.3281 12.318 57.8961 11.862C57.4761 11.406 57.1521 10.884 56.9241 10.296C56.6961 9.708 56.5821 9.09 56.5821 8.442C56.5821 7.782 56.6961 7.158 56.9241 6.57C57.1521 5.982 57.4761 5.46 57.8961 5.004C58.3281 4.548 58.8501 4.194 59.4621 3.942C60.0741 3.678 60.7641 3.546 61.5321 3.546C62.3001 3.546 62.9841 3.678 63.5841 3.942C64.1961 4.194 64.7181 4.548 65.1501 5.004C65.5821 5.46 65.9061 5.982 66.1221 6.57C66.3501 7.158 66.4641 7.782 66.4641 8.442C66.4641 9.09 66.3501 9.708 66.1221 10.296C65.9061 10.884 65.5821 11.406 65.1501 11.862C64.7301 12.318 64.2141 12.678 63.6021 12.942C62.9901 13.194 62.3001 13.32 61.5321 13.32ZM59.0661 8.442C59.0661 8.994 59.1741 9.486 59.3901 9.918C59.6061 10.338 59.9001 10.668 60.2721 10.908C60.6441 11.148 61.0641 11.268 61.5321 11.268C61.9881 11.268 62.4021 11.148 62.7741 10.908C63.1461 10.656 63.4401 10.32 63.6561 9.9C63.8841 9.468 63.9981 8.976 63.9981 8.424C63.9981 7.884 63.8841 7.398 63.6561 6.966C63.4401 6.534 63.1461 6.198 62.7741 5.958C62.4021 5.718 61.9881 5.598 61.5321 5.598C61.0641 5.598 60.6441 5.724 60.2721 5.976C59.9001 6.216 59.6061 6.552 59.3901 6.984C59.1741 7.404 59.0661 7.89 59.0661 8.442ZM73.6035 12.654C73.3995 12.738 73.1535 12.834 72.8655 12.942C72.5775 13.05 72.2655 13.134 71.9295 13.194C71.6055 13.266 71.2755 13.302 70.9395 13.302C70.4955 13.302 70.0875 13.224 69.7155 13.068C69.3435 12.912 69.0435 12.666 68.8155 12.33C68.5995 11.982 68.4915 11.532 68.4915 10.98V5.562H67.2495V3.708H68.4915V0.647999H70.9035V3.708H72.8835V5.562H70.9035V10.17C70.9155 10.494 71.0055 10.728 71.1735 10.872C71.3415 11.016 71.5515 11.088 71.8035 11.088C72.0555 11.088 72.3015 11.046 72.5415 10.962C72.7815 10.878 72.9735 10.806 73.1175 10.746L73.6035 12.654ZM79.1103 13.32C78.3423 13.32 77.6523 13.194 77.0403 12.942C76.4283 12.678 75.9063 12.318 75.4743 11.862C75.0543 11.406 74.7303 10.884 74.5023 10.296C74.2743 9.708 74.1603 9.09 74.1603 8.442C74.1603 7.782 74.2743 7.158 74.5023 6.57C74.7303 5.982 75.0543 5.46 75.4743 5.004C75.9063 4.548 76.4283 4.194 77.0403 3.942C77.6523 3.678 78.3423 3.546 79.1103 3.546C79.8783 3.546 80.5623 3.678 81.1623 3.942C81.7743 4.194 82.2963 4.548 82.7283 5.004C83.1603 5.46 83.4843 5.982 83.7003 6.57C83.9283 7.158 84.0423 7.782 84.0423 8.442C84.0423 9.09 83.9283 9.708 83.7003 10.296C83.4843 10.884 83.1603 11.406 82.7283 11.862C82.3083 12.318 81.7923 12.678 81.1803 12.942C80.5683 13.194 79.8783 13.32 79.1103 13.32ZM76.6443 8.442C76.6443 8.994 76.7523 9.486 76.9683 9.918C77.1843 10.338 77.4783 10.668 77.8503 10.908C78.2223 11.148 78.6423 11.268 79.1103 11.268C79.5663 11.268 79.9803 11.148 80.3523 10.908C80.7243 10.656 81.0183 10.32 81.2343 9.9C81.4623 9.468 81.5763 8.976 81.5763 8.424C81.5763 7.884 81.4623 7.398 81.2343 6.966C81.0183 6.534 80.7243 6.198 80.3523 5.958C79.9803 5.718 79.5663 5.598 79.1103 5.598C78.6423 5.598 78.2223 5.724 77.8503 5.976C77.4783 6.216 77.1843 6.552 76.9683 6.984C76.7523 7.404 76.6443 7.89 76.6443 8.442ZM89.1443 13.32C88.3403 13.32 87.5723 13.188 86.8403 12.924C86.1083 12.66 85.4783 12.27 84.9503 11.754L85.8143 10.188C86.3783 10.644 86.9303 10.98 87.4703 11.196C88.0223 11.412 88.5503 11.52 89.0543 11.52C89.5223 11.52 89.8943 11.436 90.1703 11.268C90.4583 11.1 90.6023 10.848 90.6023 10.512C90.6023 10.284 90.5243 10.11 90.3683 9.99C90.2123 9.858 89.9843 9.744 89.6843 9.648C89.3963 9.552 89.0423 9.444 88.6223 9.324C87.9263 9.096 87.3443 8.874 86.8763 8.658C86.4083 8.442 86.0543 8.172 85.8143 7.848C85.5863 7.512 85.4723 7.086 85.4723 6.57C85.4723 5.946 85.6283 5.412 85.9403 4.968C86.2643 4.512 86.7083 4.158 87.2723 3.906C87.8483 3.654 88.5203 3.528 89.2883 3.528C89.9603 3.528 90.5963 3.636 91.1963 3.852C91.7963 4.056 92.3423 4.392 92.8343 4.86L91.8623 6.39C91.3823 6.018 90.9263 5.748 90.4943 5.58C90.0623 5.4 89.6243 5.31 89.1803 5.31C88.9283 5.31 88.6883 5.34 88.4603 5.4C88.2443 5.46 88.0643 5.562 87.9203 5.706C87.7883 5.838 87.7223 6.03 87.7223 6.282C87.7223 6.51 87.7823 6.69 87.9023 6.822C88.0343 6.942 88.2263 7.05 88.4783 7.146C88.7423 7.242 89.0603 7.35 89.4323 7.47C90.1883 7.686 90.8243 7.908 91.3403 8.136C91.8683 8.364 92.2643 8.646 92.5283 8.982C92.7923 9.306 92.9243 9.756 92.9243 10.332C92.9243 11.268 92.5823 12 91.8983 12.528C91.2143 13.056 90.2963 13.32 89.1443 13.32ZM103.331 13.14H100.919V7.848C100.919 7.116 100.775 6.57 100.487 6.21C100.211 5.85 99.8268 5.67 99.3348 5.67C99.0468 5.67 98.7408 5.754 98.4168 5.922C98.0928 6.09 97.7988 6.324 97.5348 6.624C97.2828 6.912 97.0968 7.248 96.9768 7.632V13.14H94.5648V-9.53674e-07H96.9768V5.454C97.3248 4.854 97.7988 4.386 98.3988 4.05C98.9988 3.714 99.6528 3.546 100.361 3.546C100.973 3.546 101.471 3.654 101.855 3.87C102.239 4.074 102.539 4.356 102.755 4.716C102.971 5.064 103.121 5.46 103.205 5.904C103.289 6.336 103.331 6.786 103.331 7.254V13.14ZM109.784 13.32C109.016 13.32 108.326 13.194 107.714 12.942C107.102 12.678 106.58 12.318 106.148 11.862C105.728 11.406 105.404 10.884 105.176 10.296C104.948 9.708 104.834 9.09 104.834 8.442C104.834 7.782 104.948 7.158 105.176 6.57C105.404 5.982 105.728 5.46 106.148 5.004C106.58 4.548 107.102 4.194 107.714 3.942C108.326 3.678 109.016 3.546 109.784 3.546C110.552 3.546 111.236 3.678 111.836 3.942C112.448 4.194 112.97 4.548 113.402 5.004C113.834 5.46 114.158 5.982 114.374 6.57C114.602 7.158 114.716 7.782 114.716 8.442C114.716 9.09 114.602 9.708 114.374 10.296C114.158 10.884 113.834 11.406 113.402 11.862C112.982 12.318 112.466 12.678 111.854 12.942C111.242 13.194 110.552 13.32 109.784 13.32ZM107.318 8.442C107.318 8.994 107.426 9.486 107.642 9.918C107.858 10.338 108.152 10.668 108.524 10.908C108.896 11.148 109.316 11.268 109.784 11.268C110.24 11.268 110.654 11.148 111.026 10.908C111.398 10.656 111.692 10.32 111.908 9.9C112.136 9.468 112.25 8.976 112.25 8.424C112.25 7.884 112.136 7.398 111.908 6.966C111.692 6.534 111.398 6.198 111.026 5.958C110.654 5.718 110.24 5.598 109.784 5.598C109.316 5.598 108.896 5.724 108.524 5.976C108.152 6.216 107.858 6.552 107.642 6.984C107.426 7.404 107.318 7.89 107.318 8.442ZM121.996 13.32C121.264 13.32 120.616 13.158 120.052 12.834C119.5 12.498 119.068 12.048 118.756 11.484V16.974H116.344V3.708H118.45V5.328C118.81 4.776 119.266 4.344 119.818 4.032C120.37 3.708 121 3.546 121.708 3.546C122.344 3.546 122.926 3.672 123.454 3.924C123.994 4.176 124.462 4.53 124.858 4.986C125.254 5.43 125.56 5.946 125.776 6.534C126.004 7.11 126.118 7.734 126.118 8.406C126.118 9.318 125.938 10.146 125.578 10.89C125.23 11.634 124.744 12.228 124.12 12.672C123.508 13.104 122.8 13.32 121.996 13.32ZM121.186 11.268C121.558 11.268 121.894 11.19 122.194 11.034C122.494 10.878 122.752 10.668 122.968 10.404C123.196 10.128 123.364 9.822 123.472 9.486C123.592 9.138 123.652 8.778 123.652 8.406C123.652 8.01 123.586 7.644 123.454 7.308C123.334 6.972 123.154 6.678 122.914 6.426C122.674 6.162 122.392 5.958 122.068 5.814C121.756 5.67 121.414 5.598 121.042 5.598C120.814 5.598 120.58 5.64 120.34 5.724C120.112 5.796 119.89 5.904 119.674 6.048C119.458 6.192 119.266 6.36 119.098 6.552C118.942 6.744 118.828 6.954 118.756 7.182V9.396C118.9 9.744 119.092 10.062 119.332 10.35C119.584 10.638 119.872 10.866 120.196 11.034C120.52 11.19 120.85 11.268 121.186 11.268Z" fill="#060405"/>
<path d="M136.361 13.32C135.653 13.32 135.011 13.194 134.435 12.942C133.859 12.678 133.361 12.324 132.941 11.88C132.521 11.424 132.197 10.902 131.969 10.314C131.741 9.726 131.627 9.108 131.627 8.46C131.627 7.8 131.741 7.176 131.969 6.588C132.197 6 132.521 5.484 132.941 5.04C133.361 4.584 133.859 4.23 134.435 3.978C135.023 3.714 135.665 3.582 136.361 3.582C137.069 3.582 137.711 3.714 138.287 3.978C138.863 4.23 139.361 4.584 139.781 5.04C140.213 5.484 140.543 6 140.771 6.588C140.999 7.176 141.113 7.8 141.113 8.46C141.113 9.108 140.999 9.726 140.771 10.314C140.543 10.902 140.219 11.424 139.799 11.88C139.379 12.324 138.875 12.678 138.287 12.942C137.711 13.194 137.069 13.32 136.361 13.32ZM133.247 8.478C133.247 9.126 133.385 9.714 133.661 10.242C133.949 10.77 134.327 11.19 134.795 11.502C135.263 11.802 135.785 11.952 136.361 11.952C136.937 11.952 137.459 11.796 137.927 11.484C138.407 11.172 138.785 10.752 139.061 10.224C139.349 9.684 139.493 9.09 139.493 8.442C139.493 7.794 139.349 7.206 139.061 6.678C138.785 6.15 138.407 5.73 137.927 5.418C137.459 5.106 136.937 4.95 136.361 4.95C135.785 4.95 135.263 5.112 134.795 5.436C134.327 5.748 133.949 6.168 133.661 6.696C133.385 7.224 133.247 7.818 133.247 8.478ZM143.014 13.14V3.744H144.598V7.632H149.494V3.744H151.078V13.14H149.494V9.036H144.598V13.14H143.014ZM152.804 13.212V11.79C153.116 11.79 153.392 11.712 153.632 11.556C153.884 11.388 154.106 11.112 154.298 10.728C154.49 10.332 154.64 9.792 154.748 9.108C154.868 8.412 154.946 7.53 154.982 6.462L155.09 3.744H161.48V13.14H159.896V5.148H156.494L156.458 6.606C156.41 7.89 156.302 8.958 156.134 9.81C155.966 10.662 155.732 11.334 155.432 11.826C155.132 12.318 154.76 12.672 154.316 12.888C153.884 13.104 153.38 13.212 152.804 13.212ZM163.3 10.422C163.3 9.822 163.468 9.306 163.804 8.874C164.152 8.43 164.626 8.088 165.226 7.848C165.826 7.608 166.522 7.488 167.314 7.488C167.734 7.488 168.178 7.524 168.646 7.596C169.114 7.656 169.528 7.752 169.888 7.884V7.2C169.888 6.48 169.672 5.916 169.24 5.508C168.808 5.088 168.196 4.878 167.404 4.878C166.888 4.878 166.39 4.974 165.91 5.166C165.442 5.346 164.944 5.61 164.416 5.958L163.84 4.842C164.452 4.422 165.064 4.11 165.676 3.906C166.288 3.69 166.924 3.582 167.584 3.582C168.784 3.582 169.732 3.918 170.428 4.59C171.124 5.25 171.472 6.174 171.472 7.362V11.34C171.472 11.532 171.508 11.676 171.58 11.772C171.664 11.856 171.796 11.904 171.976 11.916V13.14C171.82 13.164 171.682 13.182 171.562 13.194C171.454 13.206 171.364 13.212 171.292 13.212C170.92 13.212 170.638 13.11 170.446 12.906C170.266 12.702 170.164 12.486 170.14 12.258L170.104 11.664C169.696 12.192 169.162 12.6 168.502 12.888C167.842 13.176 167.188 13.32 166.54 13.32C165.916 13.32 165.358 13.194 164.866 12.942C164.374 12.678 163.99 12.33 163.714 11.898C163.438 11.454 163.3 10.962 163.3 10.422ZM169.42 11.088C169.564 10.92 169.678 10.752 169.762 10.584C169.846 10.404 169.888 10.254 169.888 10.134V8.964C169.516 8.82 169.126 8.712 168.718 8.64C168.31 8.556 167.908 8.514 167.512 8.514C166.708 8.514 166.054 8.676 165.55 9C165.058 9.312 164.812 9.744 164.812 10.296C164.812 10.596 164.89 10.89 165.046 11.178C165.214 11.454 165.454 11.682 165.766 11.862C166.09 12.042 166.486 12.132 166.954 12.132C167.446 12.132 167.914 12.036 168.358 11.844C168.802 11.64 169.156 11.388 169.42 11.088ZM173.987 13.14V3.762H175.571V11.016L180.827 3.744H182.267V13.14H180.683V6.03L175.499 13.14H173.987ZM178.145 2.682C177.281 2.682 176.627 2.478 176.183 2.07C175.739 1.65 175.517 1.134 175.517 0.521999H176.633C176.633 0.857999 176.747 1.14 176.975 1.368C177.215 1.584 177.605 1.692 178.145 1.692C178.673 1.692 179.045 1.59 179.261 1.386C179.477 1.17 179.609 0.881999 179.657 0.521999H180.773C180.773 1.134 180.551 1.65 180.107 2.07C179.663 2.478 179.009 2.682 178.145 2.682ZM184.78 13.14V3.744H186.364V7.632H191.26V3.744H192.844V13.14H191.26V9.036H186.364V13.14H184.78Z" fill="#060405" fill-opacity="0.3"/>
</svg>
