<svg width="100" height="100" viewBox="0 0 100 100" fill="none" xmlns="http://www.w3.org/2000/svg">
<g filter="url(#filter0_d_22_504)">
<mask id="mask0_22_504" style="mask-type:alpha" maskUnits="userSpaceOnUse" x="7" y="3" width="85" height="85">
<rect x="7.75" y="3.75" width="84" height="84" fill="#D9D9D9"/>
</mask>
<g mask="url(#mask0_22_504)">
<path d="M26.3271 75.5C24.559 75.5 23.0625 74.8875 21.8375 73.6625C20.6125 72.4375 20 70.941 20 69.1729V22.3271C20 20.559 20.6125 19.0625 21.8375 17.8375C23.0625 16.6125 24.559 16 26.3271 16H73.1729C74.941 16 76.4375 16.6125 77.6625 17.8375C78.8875 19.0625 79.5 20.559 79.5 22.3271V69.1729C79.5 70.941 78.8875 72.4375 77.6625 73.6625C76.4375 74.8875 74.941 75.5 73.1729 75.5H26.3271ZM74.25 30.6055L53.5466 53.8L39.6542 39.9076L25.25 54.3119V61.7957L39.6542 47.3924L53.7619 61.5L74.25 38.4805V30.6055Z" fill="url(#paint0_linear_22_504)"/>
</g>
</g>
<defs>
<filter id="filter0_d_22_504" x="-12.25" y="-16.25" width="124" height="128" filterUnits="userSpaceOnUse" color-interpolation-filters="sRGB">
<feFlood flood-opacity="0" result="BackgroundImageFix"/>
<feColorMatrix in="SourceAlpha" type="matrix" values="0 0 0 0 0 0 0 0 0 0 0 0 0 0 0 0 0 0 127 0" result="hardAlpha"/>
<feOffset dy="4"/>
<feGaussianBlur stdDeviation="10"/>
<feComposite in2="hardAlpha" operator="out"/>
<feColorMatrix type="matrix" values="0 0 0 0 1 0 0 0 0 1 0 0 0 0 1 0 0 0 0.05 0"/>
<feBlend mode="normal" in2="BackgroundImageFix" result="effect1_dropShadow_22_504"/>
<feBlend mode="normal" in="SourceGraphic" in2="effect1_dropShadow_22_504" result="shape"/>
</filter>
<linearGradient id="paint0_linear_22_504" x1="31.7128" y1="16.3167" x2="84.1504" y2="42.8741" gradientUnits="userSpaceOnUse">
<stop stop-color="white" stop-opacity="0.8"/>
<stop offset="1" stop-color="#B1CDFF" stop-opacity="0.5"/>
</linearGradient>
</defs>
</svg>
