<svg width="107" height="93" viewBox="0 0 107 93" fill="none" xmlns="http://www.w3.org/2000/svg">
<g filter="url(#filter0_d_22_498)">
<mask id="mask0_22_498" style="mask-type:alpha" maskUnits="userSpaceOnUse" x="11" y="0" width="85" height="85">
<rect x="11.25" y="0.25" width="84" height="84" fill="#D9D9D9"/>
</mask>
<g mask="url(#mask0_22_498)">
<path d="M26.3271 68.5C24.559 68.5 23.0625 67.8875 21.8375 66.6625C20.6125 65.4375 20 63.941 20 62.1729V22.3271C20 20.559 20.6125 19.0625 21.8375 17.8375C23.0625 16.6125 24.559 16 26.3271 16H80.1729C81.941 16 83.4375 16.6125 84.6625 17.8375C85.8875 19.0625 86.5 20.559 86.5 22.3271V62.1729C86.5 63.941 85.8875 65.4375 84.6625 66.6625C83.4375 67.8875 81.941 68.5 80.1729 68.5H26.3271ZM55.875 63.25H80.1729C80.4424 63.25 80.6891 63.1377 80.9131 62.9131C81.1377 62.6891 81.25 62.4424 81.25 62.1729V22.3271C81.25 22.0576 81.1377 21.8109 80.9131 21.5869C80.6891 21.3623 80.4424 21.25 80.1729 21.25H55.875V63.25ZM59.5098 52.2119H77.6152V48.0381H59.5098V52.2119ZM59.5098 43.4619H77.6152V39.2881H59.5098V43.4619ZM59.5098 34.7119H77.6152V30.5381H59.5098V34.7119Z" fill="url(#paint0_linear_22_498)"/>
</g>
</g>
<defs>
<filter id="filter0_d_22_498" x="-8.75" y="-19.75" width="124" height="128" filterUnits="userSpaceOnUse" color-interpolation-filters="sRGB">
<feFlood flood-opacity="0" result="BackgroundImageFix"/>
<feColorMatrix in="SourceAlpha" type="matrix" values="0 0 0 0 0 0 0 0 0 0 0 0 0 0 0 0 0 0 127 0" result="hardAlpha"/>
<feOffset dy="4"/>
<feGaussianBlur stdDeviation="10"/>
<feComposite in2="hardAlpha" operator="out"/>
<feColorMatrix type="matrix" values="0 0 0 0 1 0 0 0 0 1 0 0 0 0 1 0 0 0 0.05 0"/>
<feBlend mode="normal" in2="BackgroundImageFix" result="effect1_dropShadow_22_498"/>
<feBlend mode="normal" in="SourceGraphic" in2="effect1_dropShadow_22_498" result="shape"/>
</filter>
<linearGradient id="paint0_linear_22_498" x1="86.7794" y1="16.2234" x2="43.5711" y2="83.577" gradientUnits="userSpaceOnUse">
<stop stop-color="white" stop-opacity="0.8"/>
<stop offset="1" stop-color="#FF87C6" stop-opacity="0.5"/>
</linearGradient>
</defs>
</svg>
