<svg width="24" height="24" viewBox="0 0 24 24" fill="none" xmlns="http://www.w3.org/2000/svg">
<mask id="mask0_28_595" style="mask-type:alpha" maskUnits="userSpaceOnUse" x="0" y="0" width="24" height="24">
<rect width="24" height="24" fill="#D9D9D9"/>
</mask>
<g mask="url(#mask0_28_595)">
<path d="M5.30775 20.5C4.80258 20.5 4.375 20.325 4.025 19.975C3.675 19.625 3.5 19.1974 3.5 18.6923V5.30775C3.5 4.80258 3.675 4.375 4.025 4.025C4.375 3.675 4.80258 3.5 5.30775 3.5H13.6538C13.3718 3.90767 13.1603 4.34583 13.0193 4.8145C12.8783 5.283 12.8077 5.7615 12.8077 6.25C12.8077 7.6205 13.2888 8.78683 14.251 9.749C15.2132 10.7112 16.3795 11.1923 17.75 11.1923C18.2385 11.1923 18.717 11.1217 19.1855 10.9807C19.6542 10.8397 20.0923 10.6282 20.5 10.3462V18.6923C20.5 19.1974 20.325 19.625 19.975 19.975C19.625 20.325 19.1974 20.5 18.6923 20.5H5.30775ZM6.38475 16.6923H17.6152L14.125 12.0385L11.125 15.9327L9 13.2308L6.38475 16.6923ZM17 9V7H15V5.5H17V3.5H18.5V5.5H20.5V7H18.5V9H17Z" fill="#060405"/>
</g>
</svg>
